<?xml version="1.0" encoding="UTF-8" standalone="no"?>
<!-- Created with Inkscape (http://www.inkscape.org/) -->

<svg
   width="618.78137mm"
   height="112.40881mm"
   viewBox="0 0 618.78137 112.40881"
   version="1.1"
   id="svg28812"
   inkscape:version="1.1.2 (b8e25be833, 2022-02-05)"
   sodipodi:docname="Original Non Merged DD InThe US.svg"
   xmlns:inkscape="http://www.inkscape.org/namespaces/inkscape"
   xmlns:sodipodi="http://sodipodi.sourceforge.net/DTD/sodipodi-0.dtd"
   xmlns="http://www.w3.org/2000/svg"
   xmlns:svg="http://www.w3.org/2000/svg">
  <sodipodi:namedview
     id="namedview28814"
     pagecolor="#ffffff"
     bordercolor="#666666"
     borderopacity="1.0"
     inkscape:pageshadow="2"
     inkscape:pageopacity="0.0"
     inkscape:pagecheckerboard="0"
     inkscape:document-units="mm"
     showgrid="false"
     inkscape:zoom="0.32966126"
     inkscape:cx="1037.4286"
     inkscape:cy="216.8893"
     inkscape:window-width="1368"
     inkscape:window-height="866"
     inkscape:window-x="-6"
     inkscape:window-y="-6"
     inkscape:window-maximized="1"
     inkscape:current-layer="layer1">
    <inkscape:grid
       type="xygrid"
       id="grid28884"
       originx="280.38864"
       originy="-50.898732" />
  </sodipodi:namedview>
  <defs
     id="defs28809" />
  <g
     inkscape:label="Calque 1"
     inkscape:groupmode="layer"
     id="layer1"
     transform="translate(280.38864,-50.898735)">
    <g
       aria-label="Returns"
       id="text49058"
       style="font-size:19.05px;line-height:1.25;font-family:'Signika Negative';-inkscape-font-specification:'Signika Negative, Normal';font-variant-ligatures:none;stroke-width:0.264583" />
    <path
       d="m 255.17666,54.102815 c 2.34155,0 4.23332,1.891771 4.23332,4.233333 v 2.116667 l 9.12813,-2.275417 c 5.04031,-1.256771 10.35844,-0.674687 15.0151,1.653646 6.12511,3.069167 13.335,3.069167 19.46011,0 l 1.27,-0.635 c 2.7252,-1.375833 5.92666,0.608542 5.92666,3.65125 v 4.77573 l -5.91343,2.143124 c -5.66209,2.06375 -11.90625,1.838854 -17.40958,-0.608542 l -2.1299,-0.9525 c -2.68552,-1.190624 -5.52979,-1.944687 -8.41375,-2.235729 v 4.259792 c 2.30187,0.277812 4.55083,0.886354 6.69396,1.838854 l 2.1299,0.9525 c 6.50874,2.897188 13.89062,3.148542 20.58458,0.714375 l 4.45822,-1.600729 v 8.202087 l -5.91343,2.14312 c -5.66209,2.06375 -11.90625,1.83885 -17.40958,-0.60854 l -2.1299,-0.9525 c -5.31812,-2.368021 -11.24479,-2.976563 -16.94656,-1.75948 l -8.40052,1.8124 v 4.32593 l 9.28687,-1.9976 c 4.81542,-1.03188 9.82927,-0.51594 14.34042,1.49489 l 2.1299,0.9525 c 6.50874,2.89719 13.89062,3.14854 20.58457,0.71438 l 4.45823,-1.62719 v 8.20208 l -5.91343,2.14313 c -5.66209,2.06375 -11.90625,1.83885 -17.40958,-0.60855 l -2.1299,-0.9525 c -5.31812,-2.36802 -11.24479,-2.97656 -16.94656,-1.75947 l -8.40052,1.81239 v 4.32594 l 9.28687,-1.99761 c 4.81542,-1.03187 9.82927,-0.51593 14.34042,1.4949 l 2.1299,0.9525 c 6.50874,2.897194 13.89062,3.148544 20.58457,0.71438 l 4.45823,-1.62719 v 4.431774 c 0,1.75948 -1.09802,3.34698 -2.75167,3.96875 l -4.59051,1.7198 c -6.11188,2.28864 -12.91167,1.93145 -18.74573,-0.97896 -5.01386,-2.51355 -10.75531,-3.13532 -16.20573,-1.77271 l -8.50635,2.11667 v 10.58333 c 0,2.34156 -1.89177,4.23333 -4.23333,4.23333 -2.34157,0 -4.23334,-1.89177 -4.23334,-4.23333 v -8.46667 -9.326574 -4.32593 -8.37407 -4.32593 -8.37406 -4.325938 -7.514167 -4.233333 c 0,-2.341562 1.89177,-4.233333 4.23334,-4.233333 z m 10.58332,12.7 a 2.1166667,2.1166667 0 1 0 -4.23333,0 2.1166667,2.1166667 0 1 0 4.23333,0 z m 4.23334,0 a 2.116667,2.116667 0 1 0 0,-4.233334 2.116667,2.116667 0 1 0 0,4.233334 z m -4.23334,6.35 a 2.1166667,2.1166667 0 1 0 -4.23333,0 2.1166667,2.1166667 0 1 0 4.23333,0 z m 4.23334,0 a 2.1166668,2.1166668 0 1 0 0,-4.233333 2.1166668,2.1166668 0 1 0 0,4.233333 z"
       id="path50215"
       style="stroke-width:0.132291" />
    <text
       xml:space="preserve"
       style="font-size:19.05px;line-height:1.25;font-family:'Signika Negative';-inkscape-font-specification:'Signika Negative, Normal';font-variant-ligatures:none;stroke-width:0.264583"
       x="281.87616"
       y="138.543"
       id="text52954"><tspan
         sodipodi:role="line"
         id="tspan52952"
         style="text-align:center;text-anchor:middle;stroke-width:0.264583"
         x="281.87616"
         y="138.543">US Warehouse </tspan><tspan
         sodipodi:role="line"
         style="text-align:center;text-anchor:middle;stroke-width:0.264583"
         x="281.87616"
         y="162.3555"
         id="tspan5717">or Customer</tspan></text>
    <text
       xml:space="preserve"
       style="font-size:19.05px;line-height:1.25;font-family:'Signika Negative';-inkscape-font-specification:'Signika Negative, Normal';font-variant-ligatures:none;stroke-width:0.264583"
       x="-232.36838"
       y="135.33263"
       id="text52954-7"><tspan
         sodipodi:role="line"
         style="font-size:19.05px;text-align:center;text-anchor:middle;stroke-width:0.264583"
         x="-232.36838"
         y="135.33263"
         id="tspan8215">Crossborder</tspan><tspan
         sodipodi:role="line"
         style="font-size:19.05px;text-align:center;text-anchor:middle;stroke-width:0.264583"
         x="-232.36838"
         y="159.14513"
         id="tspan8219">Country</tspan></text>
    <path
       d="m -102.47574,56.151912 10.371677,3.929062 -10.742087,4.1275 -10.74209,-4.1275 10.37167,-3.929062 c 0.23813,-0.0926 0.50271,-0.0926 0.75406,0 z m -20.47875,5.807604 v 14.843116 c -0.17198,0.0529 -0.34396,0.10583 -0.51594,0.17198 l -12.7,4.815383 c -2.87073,1.084784 -4.77573,3.849669 -4.77573,6.918811 v 15.769104 c 0,2.93687 1.73302,5.59594 4.43177,6.78656 l 12.7,5.58271 c 1.905,0.83344 4.06136,0.83344 5.96636,0 l 15.00188,-6.60135 15.015107,6.60135 c 1.905,0.83344 4.061355,0.83344 5.966355,0 l 12.7,-5.58271 c 2.68552,-1.17739 4.43177,-3.84969 4.43177,-6.78656 V 88.722036 c 0,-3.082372 -1.905,-5.834027 -4.77573,-6.932041 l -12.7,-4.815383 c -0.17198,-0.0662 -0.34396,-0.11906 -0.51594,-0.17198 V 61.959516 c 0,-3.082396 -1.904995,-5.834063 -4.775726,-6.932083 l -12.699996,-4.815417 c -1.69334,-0.635 -3.55866,-0.635 -5.25199,0 l -12.7,4.815417 c -2.89719,1.09802 -4.80219,3.862916 -4.80219,6.932083 z m 33.866677,15.623633 -10.900836,4.127466 v -11.80037 l 10.900836,-4.180417 z m -31.379597,5.33132 10.37167,3.929036 -10.74208,4.114249 -10.74209,-4.114249 10.37167,-3.929036 c 0.23812,-0.0926 0.50271,-0.0926 0.75406,0 z m 2.48709,27.040311 V 96.659491 l 10.90083,-4.180386 v 12.686725 z m 32.755422,-27.040311 c 0.238125,-0.0926 0.50271,-0.0926 0.75406,0 l 10.37167,3.929036 -10.755315,4.114249 -10.742081,-4.114249 z m 13.49375,22.529171 -10.265835,4.51114 V 96.659491 l 10.900835,-4.180386 v 11.998805 c 0,0.42333 -0.251355,0.79375 -0.635,0.96573 z"
       id="path53996"
       style="stroke-width:0.132291" />
    <path
       d="m 149.09584,57.222823 10.37168,3.929062 -10.74209,4.1275 -10.74209,-4.1275 10.37167,-3.929062 c 0.23813,-0.0926 0.50271,-0.0926 0.75406,0 z m -20.47875,5.807604 v 14.843109 c -0.17198,0.0529 -0.34395,0.10583 -0.51593,0.17198 l -12.7,4.815393 c -2.87073,1.084784 -4.77573,3.849669 -4.77573,6.918811 v 15.7691 c 0,2.93688 1.73302,5.59594 4.43177,6.78657 l 12.7,5.58271 c 1.905,0.83343 4.06135,0.83343 5.96635,0 l 15.00188,-6.60136 15.01511,6.60136 c 1.905,0.83343 4.06135,0.83343 5.96635,0 l 12.7,-5.58271 c 2.68552,-1.1774 4.43177,-3.84969 4.43177,-6.78657 V 89.79295 c 0,-3.082372 -1.905,-5.834027 -4.77573,-6.932041 l -12.7,-4.815393 c -0.17198,-0.0662 -0.34396,-0.11906 -0.51594,-0.17198 V 63.030427 c 0,-3.082396 -1.90499,-5.834063 -4.77572,-6.932083 l -12.70001,-4.815417 c -1.69333,-0.635 -3.55865,-0.635 -5.25198,0 l -12.7,4.815417 c -2.89719,1.09802 -4.80219,3.862916 -4.80219,6.932083 z m 33.86668,15.623626 -10.90084,4.127476 V 70.981156 l 10.90084,-4.180417 z m -31.37959,5.33133 10.37166,3.929036 -10.74208,4.114249 -10.74208,-4.114249 10.37166,-3.929036 c 0.23813,-0.0926 0.50271,-0.0926 0.75407,0 z m 2.48708,27.040317 V 97.730405 l 10.90083,-4.180386 v 12.686721 z m 32.75542,-27.040317 c 0.23813,-0.0926 0.50271,-0.0926 0.75406,0 l 10.37167,3.929036 -10.75531,4.114249 -10.74209,-4.114249 z m 13.49375,22.529167 -10.26583,4.51115 V 97.730405 l 10.90083,-4.180386 v 11.998801 c 0,0.42334 -0.25135,0.79375 -0.635,0.96573 z"
       id="path53996-8"
       style="stroke-width:0.132291"
       inkscape:transform-center-x="193.57641"
       inkscape:transform-center-y="19.988869" />
    <text
       xml:space="preserve"
       style="font-size:19.05px;line-height:1.25;font-family:'Signika Negative';-inkscape-font-specification:'Signika Negative, Normal';font-variant-ligatures:none;stroke-width:0.264583"
       x="-167.76665"
       y="138.543"
       id="text55465"><tspan
         sodipodi:role="line"
         id="tspan55463"
         style="stroke-width:0.264583"
         x="-167.76665"
         y="138.543">Imported Goods</tspan></text>
    <text
       xml:space="preserve"
       style="font-size:19.05px;line-height:1.25;font-family:'Signika Negative';-inkscape-font-specification:'Signika Negative, Normal';font-variant-ligatures:none;stroke-width:0.264583"
       x="85.020248"
       y="138.543"
       id="text55465-9"><tspan
         sodipodi:role="line"
         id="tspan55463-2"
         style="stroke-width:0.264583"
         x="85.020248"
         y="138.543">Similar Unused</tspan><tspan
         sodipodi:role="line"
         style="stroke-width:0.264583"
         x="85.020248"
         y="162.3555"
         id="tspan56814">Exported Goods</tspan></text>
    <path
       d="m -219.23974,84.7654 c 0,2.93687 -0.15875,5.76791 -0.43656,8.46666 h -24.51364 c -0.29105,-2.69875 -0.43657,-5.52979 -0.43657,-8.46666 0,-2.93688 0.15875,-5.76792 0.43657,-8.46667 h 24.51364 c 0.29104,2.69875 0.43656,5.52979 0.43656,8.46667 z m 3.81,-8.46667 h 16.2851 c 0.70115,2.71198 1.07157,5.54302 1.07157,8.46667 0,2.92364 -0.37042,5.75468 -1.07157,8.46666 h -16.2851 c 0.27781,-2.72521 0.42333,-5.55625 0.42333,-8.46666 0,-2.91042 -0.14552,-5.74146 -0.42333,-8.46667 z m 14.89604,-4.233329 h -15.43844 c -1.32291,-8.453437 -3.94229,-15.531041 -7.31573,-20.055416 10.35844,2.738437 18.78542,10.252604 22.74094,20.055416 z m -19.72469,0 h -23.3627 c 0.80698,-4.815416 2.05052,-9.075208 3.57187,-12.52802 1.38907,-3.122084 2.93688,-5.384271 4.43178,-6.813021 1.48166,-1.402292 2.71198,-1.825625 3.6777,-1.825625 0.96573,0 2.19605,0.423333 3.67771,1.825625 1.49489,1.42875 3.04271,3.690937 4.43177,6.813021 1.53458,3.439583 2.76489,7.699375 3.57187,12.52802 z m -27.64895,0 h -15.43844 c 3.96875,-9.802812 12.3825,-17.316979 22.75417,-20.055416 -3.37344,4.524375 -5.99281,11.601979 -7.31573,20.055416 z m -16.8275,4.233329 h 16.2851 c -0.27781,2.72521 -0.42333,5.55625 -0.42333,8.46667 0,2.91041 0.14552,5.74145 0.42333,8.46666 h -16.2851 c -0.70115,-2.71198 -1.07156,-5.54302 -1.07156,-8.46666 0,-2.92365 0.37041,-5.75469 1.07156,-8.46667 z m 24.68562,33.68146 c -1.53458,-3.43959 -2.76489,-7.69938 -3.57187,-12.514786 h 23.3627 c -0.80698,4.815406 -2.05052,9.075196 -3.57187,12.514786 -1.38906,3.12208 -2.93688,5.38427 -4.43177,6.81302 -1.48166,1.41552 -2.71198,1.83885 -3.67771,1.83885 -0.96572,0 -2.19604,-0.42333 -3.6777,-1.82562 -1.4949,-1.42875 -3.04271,-3.69094 -4.43178,-6.81302 z m -7.85812,-12.514786 c 1.32292,8.453426 3.94229,15.531036 7.31573,20.055406 -10.37167,-2.73844 -18.78542,-10.2526 -22.75417,-20.055406 z m 47.37364,0 c -3.96875,9.802806 -12.3825,17.316966 -22.74094,20.055406 3.37344,-4.52437 5.97959,-11.60198 7.31573,-20.055406 h 15.43844 z"
       id="path231"
       style="stroke-width:0.132291" />
  </g>
</svg>
