<svg id="visual" viewBox="0 0 960 540" width="960" height="540" xmlns="http://www.w3.org/2000/svg" xmlns:xlink="http://www.w3.org/1999/xlink" version="1.1"><rect x="0" y="0" width="960" height="540" fill="#fff"></rect><defs><linearGradient id="grad1_0" x1="43.8%" y1="0%" x2="100%" y2="100%"><stop offset="14.444444444444446%" stop-color="#ffffff" stop-opacity="1"></stop><stop offset="85.55555555555554%" stop-color="#ffffff" stop-opacity="1"></stop></linearGradient></defs><defs><linearGradient id="grad2_0" x1="0%" y1="0%" x2="56.3%" y2="100%"><stop offset="14.444444444444446%" stop-color="#ffffff" stop-opacity="1"></stop><stop offset="85.55555555555554%" stop-color="#ffffff" stop-opacity="1"></stop></linearGradient></defs><g transform="translate(960, 0)"><path d="M0 189C-26.6 188.7 -53.2 188.5 -72.3 174.6C-91.5 160.7 -103.3 133.2 -111.7 111.7C-120.2 90.2 -125.3 74.6 -137.7 57C-150 39.4 -169.5 19.7 -189 0L0 0Z" fill="#3b6281"></path></g><g transform="translate(0, 540)"><path d="M0 -189C20.3 -167.8 40.6 -146.5 54 -130.3C67.4 -114 73.9 -102.8 96.2 -96.2C118.5 -89.6 156.5 -87.6 174.6 -72.3C192.7 -57.1 190.9 -28.5 189 0L0 0Z" fill="#3b6281"></path></g></svg>