<svg xmlns="http://www.w3.org/2000/svg" version="1.1" xmlns:xlink="http://www.w3.org/1999/xlink" xmlns:svgjs="http://svgjs.dev/svgjs" width="1440" height="560" preserveAspectRatio="none" viewBox="0 0 1440 560"><g mask="url(&quot;#SvgjsMask1000&quot;)" fill="none"><rect width="1440" height="560" x="0" y="0" fill="#0e2a47"></rect><path d="M-82.85 363.52L-82.85 363.52" stroke="#132e65" stroke-width="1.5"></path><path d="M-82.85 363.52L-86.82 491.95" stroke="#132e65" stroke-width="1.5"></path><path d="M-82.85 363.52L77.4 403.3" stroke="#132e65" stroke-width="1.5"></path><path d="M-82.85 363.52L88.3 536.22" stroke="#132e65" stroke-width="1.5"></path><path d="M-82.85 363.52L202.92 393.6" stroke="#132e65" stroke-width="1.5"></path><path d="M-82.85 363.52L-94.52 675.49" stroke="#132e65" stroke-width="1.5"></path><path d="M-86.82 491.95L-86.82 491.95" stroke="#132e65" stroke-width="1.5"></path><path d="M-86.82 491.95L88.3 536.22" stroke="#132e65" stroke-width="1.5"></path><path d="M-86.82 491.95L-94.52 675.49" stroke="#132e65" stroke-width="1.5"></path><path d="M-86.82 491.95L77.4 403.3" stroke="#132e65" stroke-width="1.5"></path><path d="M-94.52 675.49L-94.52 675.49" stroke="#132e65" stroke-width="1.5"></path><path d="M-94.52 675.49L111.56 679.11" stroke="#132e65" stroke-width="1.5"></path><path d="M-94.52 675.49L88.3 536.22" stroke="#132e65" stroke-width="1.5"></path><path d="M-94.52 675.49L77.4 403.3" stroke="#132e65" stroke-width="1.5"></path><path d="M77.4 403.3L77.4 403.3" stroke="#132e65" stroke-width="1.5"></path><path d="M77.4 403.3L202.92 393.6" stroke="#132e65" stroke-width="1.5"></path><path d="M77.4 403.3L88.3 536.22" stroke="#132e65" stroke-width="1.5"></path><path d="M88.3 536.22L88.3 536.22" stroke="#132e65" stroke-width="1.5"></path><path d="M88.3 536.22L111.56 679.11" stroke="#132e65" stroke-width="1.5"></path><path d="M88.3 536.22L260.37 488.89" stroke="#132e65" stroke-width="1.5"></path><path d="M111.56 679.11L111.56 679.11" stroke="#132e65" stroke-width="1.5"></path><path d="M111.56 679.11L227.22 654.15" stroke="#132e65" stroke-width="1.5"></path><path d="M111.56 679.11L338.53 658.23" stroke="#132e65" stroke-width="1.5"></path><path d="M202.92 393.6L202.92 393.6" stroke="#132e65" stroke-width="1.5"></path><path d="M202.92 393.6L260.37 488.89" stroke="#132e65" stroke-width="1.5"></path><path d="M202.92 393.6L372.28 411.91" stroke="#132e65" stroke-width="1.5"></path><path d="M202.92 393.6L88.3 536.22" stroke="#132e65" stroke-width="1.5"></path><path d="M260.37 488.89L260.37 488.89" stroke="#132e65" stroke-width="1.5"></path><path d="M260.37 488.89L359.67 496.86" stroke="#132e65" stroke-width="1.5"></path><path d="M260.37 488.89L372.28 411.91" stroke="#132e65" stroke-width="1.5"></path><path d="M260.37 488.89L227.22 654.15" stroke="#132e65" stroke-width="1.5"></path><path d="M260.37 488.89L338.53 658.23" stroke="#132e65" stroke-width="1.5"></path><path d="M227.22 654.15L227.22 654.15" stroke="#132e65" stroke-width="1.5"></path><path d="M227.22 654.15L338.53 658.23" stroke="#132e65" stroke-width="1.5"></path><path d="M372.28 411.91L372.28 411.91" stroke="#132e65" stroke-width="1.5"></path><path d="M372.28 411.91L359.67 496.86" stroke="#132e65" stroke-width="1.5"></path><path d="M372.28 411.91L558.34 405.31" stroke="#132e65" stroke-width="1.5"></path><path d="M372.28 411.91L541.68 510.36" stroke="#132e65" stroke-width="1.5"></path><path d="M372.28 411.91L338.53 658.23" stroke="#132e65" stroke-width="1.5"></path><path d="M359.67 496.86L359.67 496.86" stroke="#132e65" stroke-width="1.5"></path><path d="M359.67 496.86L338.53 658.23" stroke="#132e65" stroke-width="1.5"></path><path d="M338.53 658.23L338.53 658.23" stroke="#132e65" stroke-width="1.5"></path><path d="M338.53 658.23L562.23 650.96" stroke="#132e65" stroke-width="1.5"></path><path d="M558.34 405.31L558.34 405.31" stroke="#132e65" stroke-width="1.5"></path><path d="M558.34 405.31L541.68 510.36" stroke="#132e65" stroke-width="1.5"></path><path d="M558.34 405.31L711.29 358.09" stroke="#132e65" stroke-width="1.5"></path><path d="M558.34 405.31L701.91 524.48" stroke="#132e65" stroke-width="1.5"></path><path d="M558.34 405.31L359.67 496.86" stroke="#132e65" stroke-width="1.5"></path><path d="M558.34 405.31L562.23 650.96" stroke="#132e65" stroke-width="1.5"></path><path d="M541.68 510.36L541.68 510.36" stroke="#132e65" stroke-width="1.5"></path><path d="M541.68 510.36L562.23 650.96" stroke="#132e65" stroke-width="1.5"></path><path d="M562.23 650.96L562.23 650.96" stroke="#132e65" stroke-width="1.5"></path><path d="M562.23 650.96L675.41 680.89" stroke="#132e65" stroke-width="1.5"></path><path d="M562.23 650.96L701.91 524.48" stroke="#132e65" stroke-width="1.5"></path><path d="M711.29 358.09L711.29 358.09" stroke="#132e65" stroke-width="1.5"></path><path d="M711.29 358.09L822.3 357.93" stroke="#132e65" stroke-width="1.5"></path><path d="M711.29 358.09L701.91 524.48" stroke="#132e65" stroke-width="1.5"></path><path d="M711.29 358.09L807.03 199.22" stroke="#132e65" stroke-width="1.5"></path><path d="M701.91 524.48L701.91 524.48" stroke="#132e65" stroke-width="1.5"></path><path d="M701.91 524.48L844.62 555.23" stroke="#132e65" stroke-width="1.5"></path><path d="M675.41 680.89L675.41 680.89" stroke="#132e65" stroke-width="1.5"></path><path d="M675.41 680.89L701.91 524.48" stroke="#132e65" stroke-width="1.5"></path><path d="M675.41 680.89L838.82 658.19" stroke="#132e65" stroke-width="1.5"></path><path d="M807.03 199.22L807.03 199.22" stroke="#132e65" stroke-width="1.5"></path><path d="M807.03 199.22L955.99 215.63" stroke="#132e65" stroke-width="1.5"></path><path d="M807.03 199.22L822.3 357.93" stroke="#132e65" stroke-width="1.5"></path><path d="M807.03 199.22L1009.42 109.83" stroke="#132e65" stroke-width="1.5"></path><path d="M822.3 357.93L822.3 357.93" stroke="#132e65" stroke-width="1.5"></path><path d="M822.3 357.93L989.18 369.95" stroke="#132e65" stroke-width="1.5"></path><path d="M822.3 357.93L955.99 215.63" stroke="#132e65" stroke-width="1.5"></path><path d="M844.62 555.23L844.62 555.23" stroke="#132e65" stroke-width="1.5"></path><path d="M844.62 555.23L838.82 658.19" stroke="#132e65" stroke-width="1.5"></path><path d="M844.62 555.23L965.49 547.35" stroke="#132e65" stroke-width="1.5"></path><path d="M844.62 555.23L822.3 357.93" stroke="#132e65" stroke-width="1.5"></path><path d="M844.62 555.23L675.41 680.89" stroke="#132e65" stroke-width="1.5"></path><path d="M844.62 555.23L989.18 369.95" stroke="#132e65" stroke-width="1.5"></path><path d="M838.82 658.19L838.82 658.19" stroke="#132e65" stroke-width="1.5"></path><path d="M838.82 658.19L965.49 547.35" stroke="#132e65" stroke-width="1.5"></path><path d="M838.82 658.19L701.91 524.48" stroke="#132e65" stroke-width="1.5"></path><path d="M838.82 658.19L1093.98 699.15" stroke="#132e65" stroke-width="1.5"></path><path d="M838.82 658.19L562.23 650.96" stroke="#132e65" stroke-width="1.5"></path><path d="M949.54 -112.31L949.54 -112.31" stroke="#132e65" stroke-width="1.5"></path><path d="M949.54 -112.31L1098.67 -70.38" stroke="#132e65" stroke-width="1.5"></path><path d="M949.54 -112.31L1009.42 109.83" stroke="#132e65" stroke-width="1.5"></path><path d="M949.54 -112.31L1155.12 83.02" stroke="#132e65" stroke-width="1.5"></path><path d="M949.54 -112.31L955.99 215.63" stroke="#132e65" stroke-width="1.5"></path><path d="M949.54 -112.31L1274.97 -54.96" stroke="#132e65" stroke-width="1.5"></path><path d="M949.54 -112.31L807.03 199.22" stroke="#132e65" stroke-width="1.5"></path><path d="M1009.42 109.83L1009.42 109.83" stroke="#132e65" stroke-width="1.5"></path><path d="M1009.42 109.83L955.99 215.63" stroke="#132e65" stroke-width="1.5"></path><path d="M1009.42 109.83L1155.12 83.02" stroke="#132e65" stroke-width="1.5"></path><path d="M1009.42 109.83L1154.78 231.18" stroke="#132e65" stroke-width="1.5"></path><path d="M1009.42 109.83L1098.67 -70.38" stroke="#132e65" stroke-width="1.5"></path><path d="M955.99 215.63L955.99 215.63" stroke="#132e65" stroke-width="1.5"></path><path d="M955.99 215.63L989.18 369.95" stroke="#132e65" stroke-width="1.5"></path><path d="M989.18 369.95L989.18 369.95" stroke="#132e65" stroke-width="1.5"></path><path d="M989.18 369.95L1115.27 350.37" stroke="#132e65" stroke-width="1.5"></path><path d="M965.49 547.35L965.49 547.35" stroke="#132e65" stroke-width="1.5"></path><path d="M965.49 547.35L989.18 369.95" stroke="#132e65" stroke-width="1.5"></path><path d="M965.49 547.35L1147.08 533.62" stroke="#132e65" stroke-width="1.5"></path><path d="M965.49 547.35L1093.98 699.15" stroke="#132e65" stroke-width="1.5"></path><path d="M965.49 547.35L822.3 357.93" stroke="#132e65" stroke-width="1.5"></path><path d="M1098.67 -70.38L1098.67 -70.38" stroke="#132e65" stroke-width="1.5"></path><path d="M1155.12 83.02L1155.12 83.02" stroke="#132e65" stroke-width="1.5"></path><path d="M1155.12 83.02L1252.31 70.54" stroke="#132e65" stroke-width="1.5"></path><path d="M1154.78 231.18L1154.78 231.18" stroke="#132e65" stroke-width="1.5"></path><path d="M1154.78 231.18L1257.99 211.07" stroke="#132e65" stroke-width="1.5"></path><path d="M1154.78 231.18L1115.27 350.37" stroke="#132e65" stroke-width="1.5"></path><path d="M1154.78 231.18L1155.12 83.02" stroke="#132e65" stroke-width="1.5"></path><path d="M1154.78 231.18L1252.31 70.54" stroke="#132e65" stroke-width="1.5"></path><path d="M1154.78 231.18L1311.23 343.76" stroke="#132e65" stroke-width="1.5"></path><path d="M1115.27 350.37L1115.27 350.37" stroke="#132e65" stroke-width="1.5"></path><path d="M1115.27 350.37L1147.08 533.62" stroke="#132e65" stroke-width="1.5"></path><path d="M1115.27 350.37L1311.23 343.76" stroke="#132e65" stroke-width="1.5"></path><path d="M1115.27 350.37L1257.99 211.07" stroke="#132e65" stroke-width="1.5"></path><path d="M1147.08 533.62L1147.08 533.62" stroke="#132e65" stroke-width="1.5"></path><path d="M1147.08 533.62L1242.64 648.38" stroke="#132e65" stroke-width="1.5"></path><path d="M1147.08 533.62L1308.68 539.4" stroke="#132e65" stroke-width="1.5"></path><path d="M1093.98 699.15L1093.98 699.15" stroke="#132e65" stroke-width="1.5"></path><path d="M1093.98 699.15L1242.64 648.38" stroke="#132e65" stroke-width="1.5"></path><path d="M1093.98 699.15L1147.08 533.62" stroke="#132e65" stroke-width="1.5"></path><path d="M1093.98 699.15L1308.68 539.4" stroke="#132e65" stroke-width="1.5"></path><path d="M1093.98 699.15L844.62 555.23" stroke="#132e65" stroke-width="1.5"></path><path d="M1274.97 -54.96L1274.97 -54.96" stroke="#132e65" stroke-width="1.5"></path><path d="M1274.97 -54.96L1392.16 -91.65" stroke="#132e65" stroke-width="1.5"></path><path d="M1274.97 -54.96L1252.31 70.54" stroke="#132e65" stroke-width="1.5"></path><path d="M1274.97 -54.96L1098.67 -70.38" stroke="#132e65" stroke-width="1.5"></path><path d="M1274.97 -54.96L1155.12 83.02" stroke="#132e65" stroke-width="1.5"></path><path d="M1252.31 70.54L1252.31 70.54" stroke="#132e65" stroke-width="1.5"></path><path d="M1257.99 211.07L1257.99 211.07" stroke="#132e65" stroke-width="1.5"></path><path d="M1257.99 211.07L1252.31 70.54" stroke="#132e65" stroke-width="1.5"></path><path d="M1257.99 211.07L1311.23 343.76" stroke="#132e65" stroke-width="1.5"></path><path d="M1257.99 211.07L1400.86 200.08" stroke="#132e65" stroke-width="1.5"></path><path d="M1257.99 211.07L1155.12 83.02" stroke="#132e65" stroke-width="1.5"></path><path d="M1311.23 343.76L1311.23 343.76" stroke="#132e65" stroke-width="1.5"></path><path d="M1311.23 343.76L1431.08 394.59" stroke="#132e65" stroke-width="1.5"></path><path d="M1311.23 343.76L1400.86 200.08" stroke="#132e65" stroke-width="1.5"></path><path d="M1311.23 343.76L1308.68 539.4" stroke="#132e65" stroke-width="1.5"></path><path d="M1308.68 539.4L1308.68 539.4" stroke="#132e65" stroke-width="1.5"></path><path d="M1308.68 539.4L1242.64 648.38" stroke="#132e65" stroke-width="1.5"></path><path d="M1308.68 539.4L1452.85 488.26" stroke="#132e65" stroke-width="1.5"></path><path d="M1308.68 539.4L1419.21 678.01" stroke="#132e65" stroke-width="1.5"></path><path d="M1308.68 539.4L1431.08 394.59" stroke="#132e65" stroke-width="1.5"></path><path d="M1242.64 648.38L1242.64 648.38" stroke="#132e65" stroke-width="1.5"></path><path d="M1242.64 648.38L1419.21 678.01" stroke="#132e65" stroke-width="1.5"></path><path d="M1242.64 648.38L1452.85 488.26" stroke="#132e65" stroke-width="1.5"></path><path d="M1392.16 -91.65L1392.16 -91.65" stroke="#132e65" stroke-width="1.5"></path><path d="M1392.16 -91.65L1411.58 85.49" stroke="#132e65" stroke-width="1.5"></path><path d="M1411.58 85.49L1411.58 85.49" stroke="#132e65" stroke-width="1.5"></path><path d="M1411.58 85.49L1400.86 200.08" stroke="#132e65" stroke-width="1.5"></path><path d="M1411.58 85.49L1548.86 104.74" stroke="#132e65" stroke-width="1.5"></path><path d="M1411.58 85.49L1252.31 70.54" stroke="#132e65" stroke-width="1.5"></path><path d="M1411.58 85.49L1274.97 -54.96" stroke="#132e65" stroke-width="1.5"></path><path d="M1411.58 85.49L1257.99 211.07" stroke="#132e65" stroke-width="1.5"></path><path d="M1400.86 200.08L1400.86 200.08" stroke="#132e65" stroke-width="1.5"></path><path d="M1400.86 200.08L1548.86 104.74" stroke="#132e65" stroke-width="1.5"></path><path d="M1431.08 394.59L1431.08 394.59" stroke="#132e65" stroke-width="1.5"></path><path d="M1431.08 394.59L1452.85 488.26" stroke="#132e65" stroke-width="1.5"></path><path d="M1431.08 394.59L1611.13 362.21" stroke="#132e65" stroke-width="1.5"></path><path d="M1431.08 394.59L1569.42 517.85" stroke="#132e65" stroke-width="1.5"></path><path d="M1452.85 488.26L1452.85 488.26" stroke="#132e65" stroke-width="1.5"></path><path d="M1452.85 488.26L1569.42 517.85" stroke="#132e65" stroke-width="1.5"></path><path d="M1419.21 678.01L1419.21 678.01" stroke="#132e65" stroke-width="1.5"></path><path d="M1419.21 678.01L1452.85 488.26" stroke="#132e65" stroke-width="1.5"></path><path d="M1575.05 -105.88L1575.05 -105.88" stroke="#132e65" stroke-width="1.5"></path><path d="M1575.05 -105.88L1392.16 -91.65" stroke="#132e65" stroke-width="1.5"></path><path d="M1548.86 104.74L1548.86 104.74" stroke="#132e65" stroke-width="1.5"></path><path d="M1548.86 104.74L1595.18 233.17" stroke="#132e65" stroke-width="1.5"></path><path d="M1548.86 104.74L1575.05 -105.88" stroke="#132e65" stroke-width="1.5"></path><path d="M1548.86 104.74L1392.16 -91.65" stroke="#132e65" stroke-width="1.5"></path><path d="M1548.86 104.74L1611.13 362.21" stroke="#132e65" stroke-width="1.5"></path><path d="M1595.18 233.17L1595.18 233.17" stroke="#132e65" stroke-width="1.5"></path><path d="M1595.18 233.17L1611.13 362.21" stroke="#132e65" stroke-width="1.5"></path><path d="M1595.18 233.17L1400.86 200.08" stroke="#132e65" stroke-width="1.5"></path><path d="M1595.18 233.17L1431.08 394.59" stroke="#132e65" stroke-width="1.5"></path><path d="M1611.13 362.21L1611.13 362.21" stroke="#132e65" stroke-width="1.5"></path><path d="M1611.13 362.21L1569.42 517.85" stroke="#132e65" stroke-width="1.5"></path><path d="M1569.42 517.85L1569.42 517.85" stroke="#132e65" stroke-width="1.5"></path><path d="M1569.42 517.85L1419.21 678.01" stroke="#132e65" stroke-width="1.5"></path><path d="M1569.42 517.85L1308.68 539.4" stroke="#132e65" stroke-width="1.5"></path><circle r="5" cx="-82.85" cy="363.52" fill="#132e65"></circle><circle r="5" cx="-86.82" cy="491.95" fill="#132e65"></circle><circle r="5" cx="-94.52" cy="675.49" fill="#132e65"></circle><circle r="5" cx="77.4" cy="403.3" fill="#132e65"></circle><circle r="5" cx="88.3" cy="536.22" fill="#132e65"></circle><circle r="5" cx="111.56" cy="679.11" fill="#132e65"></circle><circle r="5" cx="202.92" cy="393.6" fill="#132e65"></circle><circle r="5" cx="260.37" cy="488.89" fill="#132e65"></circle><circle r="5" cx="227.22" cy="654.15" fill="#132e65"></circle><circle r="5" cx="372.28" cy="411.91" fill="#132e65"></circle><circle r="5" cx="359.67" cy="496.86" fill="#132e65"></circle><circle r="5" cx="338.53" cy="658.23" fill="#132e65"></circle><circle r="5" cx="558.34" cy="405.31" fill="#132e65"></circle><circle r="5" cx="541.68" cy="510.36" fill="#132e65"></circle><circle r="5" cx="562.23" cy="650.96" fill="#132e65"></circle><circle r="5" cx="711.29" cy="358.09" fill="#132e65"></circle><circle r="5" cx="701.91" cy="524.48" fill="#132e65"></circle><circle r="5" cx="675.41" cy="680.89" fill="#132e65"></circle><circle r="5" cx="807.03" cy="199.22" fill="#132e65"></circle><circle r="5" cx="822.3" cy="357.93" fill="#132e65"></circle><circle r="5" cx="844.62" cy="555.23" fill="#132e65"></circle><circle r="5" cx="838.82" cy="658.19" fill="#132e65"></circle><circle r="5" cx="949.54" cy="-112.31" fill="#132e65"></circle><circle r="5" cx="1009.42" cy="109.83" fill="#132e65"></circle><circle r="5" cx="955.99" cy="215.63" fill="#132e65"></circle><circle r="5" cx="989.18" cy="369.95" fill="#132e65"></circle><circle r="5" cx="965.49" cy="547.35" fill="#132e65"></circle><circle r="5" cx="1098.67" cy="-70.38" fill="#132e65"></circle><circle r="5" cx="1155.12" cy="83.02" fill="#132e65"></circle><circle r="5" cx="1154.78" cy="231.18" fill="#132e65"></circle><circle r="5" cx="1115.27" cy="350.37" fill="#132e65"></circle><circle r="5" cx="1147.08" cy="533.62" fill="#132e65"></circle><circle r="5" cx="1093.98" cy="699.15" fill="#132e65"></circle><circle r="5" cx="1274.97" cy="-54.96" fill="#132e65"></circle><circle r="5" cx="1252.31" cy="70.54" fill="#132e65"></circle><circle r="5" cx="1257.99" cy="211.07" fill="#132e65"></circle><circle r="5" cx="1311.23" cy="343.76" fill="#132e65"></circle><circle r="5" cx="1308.68" cy="539.4" fill="#132e65"></circle><circle r="5" cx="1242.64" cy="648.38" fill="#132e65"></circle><circle r="5" cx="1392.16" cy="-91.65" fill="#132e65"></circle><circle r="5" cx="1411.58" cy="85.49" fill="#132e65"></circle><circle r="5" cx="1400.86" cy="200.08" fill="#132e65"></circle><circle r="5" cx="1431.08" cy="394.59" fill="#132e65"></circle><circle r="5" cx="1452.85" cy="488.26" fill="#132e65"></circle><circle r="5" cx="1419.21" cy="678.01" fill="#132e65"></circle><circle r="5" cx="1575.05" cy="-105.88" fill="#132e65"></circle><circle r="5" cx="1548.86" cy="104.74" fill="#132e65"></circle><circle r="5" cx="1595.18" cy="233.17" fill="#132e65"></circle><circle r="5" cx="1611.13" cy="362.21" fill="#132e65"></circle><circle r="5" cx="1569.42" cy="517.85" fill="#132e65"></circle><path d="M376.45 661.87L376.45 661.87" stroke="hsl(228.5, 77.2%, 51.5%)" stroke-width="1.5"></path><path d="M376.45 661.87L375.12 515.95" stroke="hsl(228.5, 77.2%, 51.5%)" stroke-width="1.5"></path><path d="M376.45 661.87L523.81 645.1" stroke="hsl(228.5, 77.2%, 51.5%)" stroke-width="1.5"></path><path d="M376.45 661.87L204.49 677.85" stroke="hsl(228.5, 77.2%, 51.5%)" stroke-width="1.5"></path><path d="M850.8 500.76L850.8 500.76" stroke="hsl(228.5, 77.2%, 51.5%)" stroke-width="1.5"></path><path d="M850.8 500.76L955.26 544.89" stroke="hsl(228.5, 77.2%, 51.5%)" stroke-width="1.5"></path><path d="M850.8 500.76L819.31 371.19" stroke="hsl(228.5, 77.2%, 51.5%)" stroke-width="1.5"></path><path d="M850.8 500.76L811.74 661.79" stroke="hsl(228.5, 77.2%, 51.5%)" stroke-width="1.5"></path><path d="M850.8 500.76L986.9 375.54" stroke="hsl(228.5, 77.2%, 51.5%)" stroke-width="1.5"></path><path d="M850.8 500.76L977.26 693.84" stroke="hsl(228.5, 77.2%, 51.5%)" stroke-width="1.5"></path><path d="M992.85 234.04L992.85 234.04" stroke="hsl(228.5, 77.2%, 51.5%)" stroke-width="1.5"></path><path d="M992.85 234.04L986.9 375.54" stroke="hsl(228.5, 77.2%, 51.5%)" stroke-width="1.5"></path><path d="M992.85 234.04L1140.51 240.28" stroke="hsl(228.5, 77.2%, 51.5%)" stroke-width="1.5"></path><path d="M992.85 234.04L819.31 371.19" stroke="hsl(228.5, 77.2%, 51.5%)" stroke-width="1.5"></path><path d="M1237.98 -65.96L1237.98 -65.96" stroke="hsl(228.5, 77.2%, 51.5%)" stroke-width="1.5"></path><path d="M1237.98 -65.96L1161.62 45.76" stroke="hsl(228.5, 77.2%, 51.5%)" stroke-width="1.5"></path><path d="M1237.98 -65.96L1262.71 75.05" stroke="hsl(228.5, 77.2%, 51.5%)" stroke-width="1.5"></path><path d="M1237.97 509.57L1237.97 509.57" stroke="hsl(228.5, 77.2%, 51.5%)" stroke-width="1.5"></path><path d="M1237.97 509.57L1107.48 517.57" stroke="hsl(228.5, 77.2%, 51.5%)" stroke-width="1.5"></path><path d="M1237.97 509.57L1154.42 394.13" stroke="hsl(228.5, 77.2%, 51.5%)" stroke-width="1.5"></path><path d="M1237.97 509.57L1270.31 677.26" stroke="hsl(228.5, 77.2%, 51.5%)" stroke-width="1.5"></path><path d="M1270.31 677.26L1270.31 677.26" stroke="hsl(228.5, 77.2%, 51.5%)" stroke-width="1.5"></path><path d="M1270.31 677.26L1408.95 656.79" stroke="hsl(228.5, 77.2%, 51.5%)" stroke-width="1.5"></path><path d="M1270.31 677.26L1092.31 653.44" stroke="hsl(228.5, 77.2%, 51.5%)" stroke-width="1.5"></path><path d="M1270.31 677.26L1417.17 553.51" stroke="hsl(228.5, 77.2%, 51.5%)" stroke-width="1.5"></path><path d="M1270.31 677.26L1107.48 517.57" stroke="hsl(228.5, 77.2%, 51.5%)" stroke-width="1.5"></path><path d="M1270.31 677.26L977.26 693.84" stroke="hsl(228.5, 77.2%, 51.5%)" stroke-width="1.5"></path><path d="M1439.38 352.52L1439.38 352.52" stroke="hsl(228.5, 77.2%, 51.5%)" stroke-width="1.5"></path><path d="M1439.38 352.52L1426.41 229.73" stroke="hsl(228.5, 77.2%, 51.5%)" stroke-width="1.5"></path><path d="M1439.38 352.52L1567.88 364.91" stroke="hsl(228.5, 77.2%, 51.5%)" stroke-width="1.5"></path><path d="M1439.38 352.52L1309.13 343.53" stroke="hsl(228.5, 77.2%, 51.5%)" stroke-width="1.5"></path><path d="M1558 -57.55L1558 -57.55" stroke="hsl(228.5, 77.2%, 51.5%)" stroke-width="1.5"></path><path d="M1558 -57.55L1403.86 -67.57" stroke="hsl(228.5, 77.2%, 51.5%)" stroke-width="1.5"></path><path d="M1558 -57.55L1584.73 107.13" stroke="hsl(228.5, 77.2%, 51.5%)" stroke-width="1.5"></path><path d="M1612.38 245.67L1612.38 245.67" stroke="hsl(228.5, 77.2%, 51.5%)" stroke-width="1.5"></path><path d="M1612.38 245.67L1567.88 364.91" stroke="hsl(228.5, 77.2%, 51.5%)" stroke-width="1.5"></path><path d="M1612.38 245.67L1584.73 107.13" stroke="hsl(228.5, 77.2%, 51.5%)" stroke-width="1.5"></path><path d="M1541.45 551.55L1541.45 551.55" stroke="hsl(228.5, 77.2%, 51.5%)" stroke-width="1.5"></path><path d="M1541.45 551.55L1417.17 553.51" stroke="hsl(228.5, 77.2%, 51.5%)" stroke-width="1.5"></path><path d="M1541.45 551.55L1408.95 656.79" stroke="hsl(228.5, 77.2%, 51.5%)" stroke-width="1.5"></path><path d="M1541.45 551.55L1603.21 711.6" stroke="hsl(228.5, 77.2%, 51.5%)" stroke-width="1.5"></path><path d="M1541.45 551.55L1567.88 364.91" stroke="hsl(228.5, 77.2%, 51.5%)" stroke-width="1.5"></path><path d="M1541.45 551.55L1439.38 352.52" stroke="hsl(228.5, 77.2%, 51.5%)" stroke-width="1.5"></path><path d="M1541.45 551.55L1270.31 677.26" stroke="hsl(228.5, 77.2%, 51.5%)" stroke-width="1.5"></path><path d="M-82.98 495.25L-82.98 495.25" stroke="hsl(228.5, 77.2%, 51.5%)" stroke-width="1.5"></path><path d="M-82.98 495.25L70.87 492.69" stroke="hsl(228.5, 77.2%, 51.5%)" stroke-width="1.5"></path><path d="M-82.98 495.25L-108.8 683.28" stroke="hsl(228.5, 77.2%, 51.5%)" stroke-width="1.5"></path><path d="M-82.98 495.25L72.16 648.83" stroke="hsl(228.5, 77.2%, 51.5%)" stroke-width="1.5"></path><path d="M-82.98 495.25L204.49 677.85" stroke="hsl(228.5, 77.2%, 51.5%)" stroke-width="1.5"></path><path d="M-108.8 683.28L-108.8 683.28" stroke="hsl(228.5, 77.2%, 51.5%)" stroke-width="1.5"></path><path d="M-108.8 683.28L72.16 648.83" stroke="hsl(228.5, 77.2%, 51.5%)" stroke-width="1.5"></path><path d="M-108.8 683.28L70.87 492.69" stroke="hsl(228.5, 77.2%, 51.5%)" stroke-width="1.5"></path><path d="M-108.8 683.28L204.49 677.85" stroke="hsl(228.5, 77.2%, 51.5%)" stroke-width="1.5"></path><path d="M70.87 492.69L70.87 492.69" stroke="hsl(228.5, 77.2%, 51.5%)" stroke-width="1.5"></path><path d="M70.87 492.69L72.16 648.83" stroke="hsl(228.5, 77.2%, 51.5%)" stroke-width="1.5"></path><path d="M70.87 492.69L204.49 677.85" stroke="hsl(228.5, 77.2%, 51.5%)" stroke-width="1.5"></path><path d="M72.16 648.83L72.16 648.83" stroke="hsl(228.5, 77.2%, 51.5%)" stroke-width="1.5"></path><path d="M72.16 648.83L204.49 677.85" stroke="hsl(228.5, 77.2%, 51.5%)" stroke-width="1.5"></path><path d="M204.49 677.85L204.49 677.85" stroke="hsl(228.5, 77.2%, 51.5%)" stroke-width="1.5"></path><path d="M375.12 515.95L375.12 515.95" stroke="hsl(228.5, 77.2%, 51.5%)" stroke-width="1.5"></path><path d="M375.12 515.95L542.94 487.89" stroke="hsl(228.5, 77.2%, 51.5%)" stroke-width="1.5"></path><path d="M375.12 515.95L523.81 645.1" stroke="hsl(228.5, 77.2%, 51.5%)" stroke-width="1.5"></path><path d="M375.12 515.95L204.49 677.85" stroke="hsl(228.5, 77.2%, 51.5%)" stroke-width="1.5"></path><path d="M375.12 515.95L70.87 492.69" stroke="hsl(228.5, 77.2%, 51.5%)" stroke-width="1.5"></path><path d="M375.12 515.95L72.16 648.83" stroke="hsl(228.5, 77.2%, 51.5%)" stroke-width="1.5"></path><path d="M542.94 487.89L542.94 487.89" stroke="hsl(228.5, 77.2%, 51.5%)" stroke-width="1.5"></path><path d="M542.94 487.89L523.81 645.1" stroke="hsl(228.5, 77.2%, 51.5%)" stroke-width="1.5"></path><path d="M542.94 487.89L376.45 661.87" stroke="hsl(228.5, 77.2%, 51.5%)" stroke-width="1.5"></path><path d="M542.94 487.89L692.71 691.23" stroke="hsl(228.5, 77.2%, 51.5%)" stroke-width="1.5"></path><path d="M523.81 645.1L523.81 645.1" stroke="hsl(228.5, 77.2%, 51.5%)" stroke-width="1.5"></path><path d="M523.81 645.1L692.71 691.23" stroke="hsl(228.5, 77.2%, 51.5%)" stroke-width="1.5"></path><path d="M692.71 691.23L692.71 691.23" stroke="hsl(228.5, 77.2%, 51.5%)" stroke-width="1.5"></path><path d="M692.71 691.23L811.74 661.79" stroke="hsl(228.5, 77.2%, 51.5%)" stroke-width="1.5"></path><path d="M692.71 691.23L850.8 500.76" stroke="hsl(228.5, 77.2%, 51.5%)" stroke-width="1.5"></path><path d="M819.31 371.19L819.31 371.19" stroke="hsl(228.5, 77.2%, 51.5%)" stroke-width="1.5"></path><path d="M819.31 371.19L986.9 375.54" stroke="hsl(228.5, 77.2%, 51.5%)" stroke-width="1.5"></path><path d="M819.31 371.19L955.26 544.89" stroke="hsl(228.5, 77.2%, 51.5%)" stroke-width="1.5"></path><path d="M811.74 661.79L811.74 661.79" stroke="hsl(228.5, 77.2%, 51.5%)" stroke-width="1.5"></path><path d="M986.9 375.54L986.9 375.54" stroke="hsl(228.5, 77.2%, 51.5%)" stroke-width="1.5"></path><path d="M986.9 375.54L1154.42 394.13" stroke="hsl(228.5, 77.2%, 51.5%)" stroke-width="1.5"></path><path d="M986.9 375.54L955.26 544.89" stroke="hsl(228.5, 77.2%, 51.5%)" stroke-width="1.5"></path><path d="M955.26 544.89L955.26 544.89" stroke="hsl(228.5, 77.2%, 51.5%)" stroke-width="1.5"></path><path d="M955.26 544.89L977.26 693.84" stroke="hsl(228.5, 77.2%, 51.5%)" stroke-width="1.5"></path><path d="M955.26 544.89L1107.48 517.57" stroke="hsl(228.5, 77.2%, 51.5%)" stroke-width="1.5"></path><path d="M955.26 544.89L1092.31 653.44" stroke="hsl(228.5, 77.2%, 51.5%)" stroke-width="1.5"></path><path d="M955.26 544.89L811.74 661.79" stroke="hsl(228.5, 77.2%, 51.5%)" stroke-width="1.5"></path><path d="M977.26 693.84L977.26 693.84" stroke="hsl(228.5, 77.2%, 51.5%)" stroke-width="1.5"></path><path d="M977.26 693.84L1092.31 653.44" stroke="hsl(228.5, 77.2%, 51.5%)" stroke-width="1.5"></path><path d="M977.26 693.84L811.74 661.79" stroke="hsl(228.5, 77.2%, 51.5%)" stroke-width="1.5"></path><path d="M977.26 693.84L1107.48 517.57" stroke="hsl(228.5, 77.2%, 51.5%)" stroke-width="1.5"></path><path d="M1161.62 45.76L1161.62 45.76" stroke="hsl(228.5, 77.2%, 51.5%)" stroke-width="1.5"></path><path d="M1161.62 45.76L1262.71 75.05" stroke="hsl(228.5, 77.2%, 51.5%)" stroke-width="1.5"></path><path d="M1161.62 45.76L1140.51 240.28" stroke="hsl(228.5, 77.2%, 51.5%)" stroke-width="1.5"></path><path d="M1161.62 45.76L1273.44 234.84" stroke="hsl(228.5, 77.2%, 51.5%)" stroke-width="1.5"></path><path d="M1140.51 240.28L1140.51 240.28" stroke="hsl(228.5, 77.2%, 51.5%)" stroke-width="1.5"></path><path d="M1140.51 240.28L1273.44 234.84" stroke="hsl(228.5, 77.2%, 51.5%)" stroke-width="1.5"></path><path d="M1154.42 394.13L1154.42 394.13" stroke="hsl(228.5, 77.2%, 51.5%)" stroke-width="1.5"></path><path d="M1154.42 394.13L1107.48 517.57" stroke="hsl(228.5, 77.2%, 51.5%)" stroke-width="1.5"></path><path d="M1154.42 394.13L1140.51 240.28" stroke="hsl(228.5, 77.2%, 51.5%)" stroke-width="1.5"></path><path d="M1154.42 394.13L1309.13 343.53" stroke="hsl(228.5, 77.2%, 51.5%)" stroke-width="1.5"></path><path d="M1107.48 517.57L1107.48 517.57" stroke="hsl(228.5, 77.2%, 51.5%)" stroke-width="1.5"></path><path d="M1107.48 517.57L1092.31 653.44" stroke="hsl(228.5, 77.2%, 51.5%)" stroke-width="1.5"></path><path d="M1092.31 653.44L1092.31 653.44" stroke="hsl(228.5, 77.2%, 51.5%)" stroke-width="1.5"></path><path d="M1092.31 653.44L1237.97 509.57" stroke="hsl(228.5, 77.2%, 51.5%)" stroke-width="1.5"></path><path d="M1262.71 75.05L1262.71 75.05" stroke="hsl(228.5, 77.2%, 51.5%)" stroke-width="1.5"></path><path d="M1262.71 75.05L1405.96 111.42" stroke="hsl(228.5, 77.2%, 51.5%)" stroke-width="1.5"></path><path d="M1273.44 234.84L1273.44 234.84" stroke="hsl(228.5, 77.2%, 51.5%)" stroke-width="1.5"></path><path d="M1273.44 234.84L1309.13 343.53" stroke="hsl(228.5, 77.2%, 51.5%)" stroke-width="1.5"></path><path d="M1273.44 234.84L1426.41 229.73" stroke="hsl(228.5, 77.2%, 51.5%)" stroke-width="1.5"></path><path d="M1309.13 343.53L1309.13 343.53" stroke="hsl(228.5, 77.2%, 51.5%)" stroke-width="1.5"></path><path d="M1309.13 343.53L1426.41 229.73" stroke="hsl(228.5, 77.2%, 51.5%)" stroke-width="1.5"></path><path d="M1403.86 -67.57L1403.86 -67.57" stroke="hsl(228.5, 77.2%, 51.5%)" stroke-width="1.5"></path><path d="M1403.86 -67.57L1237.98 -65.96" stroke="hsl(228.5, 77.2%, 51.5%)" stroke-width="1.5"></path><path d="M1403.86 -67.57L1405.96 111.42" stroke="hsl(228.5, 77.2%, 51.5%)" stroke-width="1.5"></path><path d="M1403.86 -67.57L1262.71 75.05" stroke="hsl(228.5, 77.2%, 51.5%)" stroke-width="1.5"></path><path d="M1403.86 -67.57L1584.73 107.13" stroke="hsl(228.5, 77.2%, 51.5%)" stroke-width="1.5"></path><path d="M1403.86 -67.57L1161.62 45.76" stroke="hsl(228.5, 77.2%, 51.5%)" stroke-width="1.5"></path><path d="M1405.96 111.42L1405.96 111.42" stroke="hsl(228.5, 77.2%, 51.5%)" stroke-width="1.5"></path><path d="M1405.96 111.42L1426.41 229.73" stroke="hsl(228.5, 77.2%, 51.5%)" stroke-width="1.5"></path><path d="M1405.96 111.42L1584.73 107.13" stroke="hsl(228.5, 77.2%, 51.5%)" stroke-width="1.5"></path><path d="M1405.96 111.42L1273.44 234.84" stroke="hsl(228.5, 77.2%, 51.5%)" stroke-width="1.5"></path><path d="M1426.41 229.73L1426.41 229.73" stroke="hsl(228.5, 77.2%, 51.5%)" stroke-width="1.5"></path><path d="M1417.17 553.51L1417.17 553.51" stroke="hsl(228.5, 77.2%, 51.5%)" stroke-width="1.5"></path><path d="M1417.17 553.51L1408.95 656.79" stroke="hsl(228.5, 77.2%, 51.5%)" stroke-width="1.5"></path><path d="M1408.95 656.79L1408.95 656.79" stroke="hsl(228.5, 77.2%, 51.5%)" stroke-width="1.5"></path><path d="M1408.95 656.79L1603.21 711.6" stroke="hsl(228.5, 77.2%, 51.5%)" stroke-width="1.5"></path><path d="M1584.73 107.13L1584.73 107.13" stroke="hsl(228.5, 77.2%, 51.5%)" stroke-width="1.5"></path><path d="M1584.73 107.13L1426.41 229.73" stroke="hsl(228.5, 77.2%, 51.5%)" stroke-width="1.5"></path><path d="M1584.73 107.13L1567.88 364.91" stroke="hsl(228.5, 77.2%, 51.5%)" stroke-width="1.5"></path><path d="M1567.88 364.91L1567.88 364.91" stroke="hsl(228.5, 77.2%, 51.5%)" stroke-width="1.5"></path><path d="M1567.88 364.91L1426.41 229.73" stroke="hsl(228.5, 77.2%, 51.5%)" stroke-width="1.5"></path><path d="M1567.88 364.91L1417.17 553.51" stroke="hsl(228.5, 77.2%, 51.5%)" stroke-width="1.5"></path><path d="M1603.21 711.6L1603.21 711.6" stroke="hsl(228.5, 77.2%, 51.5%)" stroke-width="1.5"></path><path d="M1603.21 711.6L1417.17 553.51" stroke="hsl(228.5, 77.2%, 51.5%)" stroke-width="1.5"></path><path d="M1603.21 711.6L1270.31 677.26" stroke="hsl(228.5, 77.2%, 51.5%)" stroke-width="1.5"></path><circle r="25" cx="376.45" cy="661.87" fill="url(&quot;#SvgjsRadialGradient1001&quot;)"></circle><circle r="25" cx="850.8" cy="500.76" fill="url(&quot;#SvgjsRadialGradient1001&quot;)"></circle><circle r="25" cx="992.85" cy="234.04" fill="url(&quot;#SvgjsRadialGradient1001&quot;)"></circle><circle r="25" cx="1237.98" cy="-65.96" fill="url(&quot;#SvgjsRadialGradient1001&quot;)"></circle><circle r="25" cx="1237.97" cy="509.57" fill="url(&quot;#SvgjsRadialGradient1001&quot;)"></circle><circle r="25" cx="1270.31" cy="677.26" fill="url(&quot;#SvgjsRadialGradient1001&quot;)"></circle><circle r="25" cx="1439.38" cy="352.52" fill="url(&quot;#SvgjsRadialGradient1001&quot;)"></circle><circle r="25" cx="1558" cy="-57.55" fill="url(&quot;#SvgjsRadialGradient1001&quot;)"></circle><circle r="25" cx="1612.38" cy="245.67" fill="url(&quot;#SvgjsRadialGradient1001&quot;)"></circle><circle r="25" cx="1541.45" cy="551.55" fill="url(&quot;#SvgjsRadialGradient1001&quot;)"></circle><circle r="5" cx="-82.98" cy="495.25" fill="#8b9ad9"></circle><circle r="5" cx="-108.8" cy="683.28" fill="#8b9ad9"></circle><circle r="5" cx="70.87" cy="492.69" fill="#8b9ad9"></circle><circle r="5" cx="72.16" cy="648.83" fill="#8b9ad9"></circle><circle r="5" cx="204.49" cy="677.85" fill="#8b9ad9"></circle><circle r="5" cx="375.12" cy="515.95" fill="#8b9ad9"></circle><circle r="5" cx="542.94" cy="487.89" fill="#8b9ad9"></circle><circle r="5" cx="523.81" cy="645.1" fill="#8b9ad9"></circle><circle r="5" cx="692.71" cy="691.23" fill="#8b9ad9"></circle><circle r="5" cx="819.31" cy="371.19" fill="#8b9ad9"></circle><circle r="5" cx="811.74" cy="661.79" fill="#8b9ad9"></circle><circle r="5" cx="986.9" cy="375.54" fill="#8b9ad9"></circle><circle r="5" cx="955.26" cy="544.89" fill="#8b9ad9"></circle><circle r="5" cx="977.26" cy="693.84" fill="#8b9ad9"></circle><circle r="5" cx="1161.62" cy="45.76" fill="#8b9ad9"></circle><circle r="5" cx="1140.51" cy="240.28" fill="#8b9ad9"></circle><circle r="5" cx="1154.42" cy="394.13" fill="#8b9ad9"></circle><circle r="5" cx="1107.48" cy="517.57" fill="#8b9ad9"></circle><circle r="5" cx="1092.31" cy="653.44" fill="#8b9ad9"></circle><circle r="5" cx="1262.71" cy="75.05" fill="#8b9ad9"></circle><circle r="5" cx="1273.44" cy="234.84" fill="#8b9ad9"></circle><circle r="5" cx="1309.13" cy="343.53" fill="#8b9ad9"></circle><circle r="5" cx="1403.86" cy="-67.57" fill="#8b9ad9"></circle><circle r="5" cx="1405.96" cy="111.42" fill="#8b9ad9"></circle><circle r="5" cx="1426.41" cy="229.73" fill="#8b9ad9"></circle><circle r="5" cx="1417.17" cy="553.51" fill="#8b9ad9"></circle><circle r="5" cx="1408.95" cy="656.79" fill="#8b9ad9"></circle><circle r="5" cx="1584.73" cy="107.13" fill="#8b9ad9"></circle><circle r="5" cx="1567.88" cy="364.91" fill="#8b9ad9"></circle><circle r="5" cx="1603.21" cy="711.6" fill="#8b9ad9"></circle></g><defs><mask id="SvgjsMask1000"><rect width="1440" height="560" fill="#ffffff"></rect></mask><radialGradient id="SvgjsRadialGradient1001"><stop stop-color="#ffffff" offset="0.1"></stop><stop stop-color="#1735b3" offset="0.2"></stop><stop stop-color="rgba(23, 53, 179, 0)" offset="1"></stop></radialGradient></defs></svg>