<svg id="visual" viewBox="0 0 960 540" width="960" height="540" xmlns="http://www.w3.org/2000/svg" xmlns:xlink="http://www.w3.org/1999/xlink" version="1.1"><path d="M0 23L48 23L48 77L96 77L96 39L144 39L144 66L192 66L192 39L240 39L240 60L288 60L288 66L336 66L336 50L384 50L384 66L432 66L432 33L480 33L480 66L528 66L528 71L576 71L576 60L624 60L624 39L672 39L672 55L720 55L720 60L768 60L768 39L816 39L816 44L864 44L864 39L912 39L912 39L960 39L960 50L960 0L960 0L912 0L912 0L864 0L864 0L816 0L816 0L768 0L768 0L720 0L720 0L672 0L672 0L624 0L624 0L576 0L576 0L528 0L528 0L480 0L480 0L432 0L432 0L384 0L384 0L336 0L336 0L288 0L288 0L240 0L240 0L192 0L192 0L144 0L144 0L96 0L96 0L48 0L48 0L0 0Z" fill="#243b4e"></path><path d="M0 44L48 44L48 104L96 104L96 77L144 77L144 82L192 82L192 60L240 60L240 98L288 98L288 93L336 93L336 82L384 82L384 109L432 109L432 55L480 55L480 87L528 87L528 87L576 87L576 93L624 93L624 55L672 55L672 98L720 98L720 93L768 93L768 71L816 71L816 82L864 82L864 50L912 50L912 71L960 71L960 77L960 48L960 37L912 37L912 37L864 37L864 42L816 42L816 37L768 37L768 58L720 58L720 53L672 53L672 37L624 37L624 58L576 58L576 69L528 69L528 64L480 64L480 31L432 31L432 64L384 64L384 48L336 48L336 64L288 64L288 58L240 58L240 37L192 37L192 64L144 64L144 37L96 37L96 75L48 75L48 21L0 21Z" fill="#2a455c"></path><path d="M0 114L48 114L48 190L96 190L96 141L144 141L144 136L192 136L192 136L240 136L240 195L288 195L288 125L336 125L336 158L384 158L384 206L432 206L432 114L480 114L480 152L528 152L528 131L576 131L576 131L624 131L624 98L672 98L672 206L720 206L720 168L768 168L768 158L816 158L816 141L864 141L864 163L912 163L912 179L960 179L960 168L960 75L960 69L912 69L912 48L864 48L864 80L816 80L816 69L768 69L768 91L720 91L720 96L672 96L672 53L624 53L624 91L576 91L576 85L528 85L528 85L480 85L480 53L432 53L432 107L384 107L384 80L336 80L336 91L288 91L288 96L240 96L240 58L192 58L192 80L144 80L144 75L96 75L96 102L48 102L48 42L0 42Z" fill="#30506a"></path><path d="M0 266L48 266L48 303L96 303L96 228L144 228L144 217L192 217L192 298L240 298L240 341L288 341L288 195L336 195L336 255L384 255L384 336L432 336L432 228L480 228L480 287L528 287L528 303L576 303L576 222L624 222L624 255L672 255L672 330L720 330L720 282L768 282L768 233L816 233L816 233L864 233L864 260L912 260L912 249L960 249L960 255L960 166L960 177L912 177L912 161L864 161L864 139L816 139L816 156L768 156L768 166L720 166L720 204L672 204L672 96L624 96L624 129L576 129L576 129L528 129L528 150L480 150L480 112L432 112L432 204L384 204L384 156L336 156L336 123L288 123L288 193L240 193L240 134L192 134L192 134L144 134L144 139L96 139L96 188L48 188L48 112L0 112Z" fill="#375b78"></path><path d="M0 298L48 298L48 320L96 320L96 260L144 260L144 233L192 233L192 309L240 309L240 363L288 363L288 206L336 206L336 282L384 282L384 352L432 352L432 266L480 266L480 314L528 314L528 330L576 330L576 244L624 244L624 276L672 276L672 352L720 352L720 303L768 303L768 255L816 255L816 271L864 271L864 298L912 298L912 282L960 282L960 266L960 253L960 247L912 247L912 258L864 258L864 231L816 231L816 231L768 231L768 280L720 280L720 328L672 328L672 253L624 253L624 220L576 220L576 301L528 301L528 285L480 285L480 226L432 226L432 334L384 334L384 253L336 253L336 193L288 193L288 339L240 339L240 296L192 296L192 215L144 215L144 226L96 226L96 301L48 301L48 264L0 264Z" fill="#3b6281"></path><path d="M0 347L48 347L48 352L96 352L96 309L144 309L144 271L192 271L192 374L240 374L240 390L288 390L288 271L336 271L336 303L384 303L384 379L432 379L432 287L480 287L480 341L528 341L528 363L576 363L576 287L624 287L624 303L672 303L672 395L720 395L720 363L768 363L768 314L816 314L816 320L864 320L864 357L912 357L912 330L960 330L960 330L960 264L960 280L912 280L912 296L864 296L864 269L816 269L816 253L768 253L768 301L720 301L720 350L672 350L672 274L624 274L624 242L576 242L576 328L528 328L528 312L480 312L480 264L432 264L432 350L384 350L384 280L336 280L336 204L288 204L288 361L240 361L240 307L192 307L192 231L144 231L144 258L96 258L96 318L48 318L48 296L0 296Z" fill="#3b6281"></path><path d="M0 422L48 422L48 428L96 428L96 438L144 438L144 444L192 444L192 428L240 428L240 433L288 433L288 438L336 438L336 465L384 465L384 449L432 449L432 455L480 455L480 417L528 417L528 471L576 471L576 455L624 455L624 428L672 428L672 471L720 471L720 433L768 433L768 428L816 428L816 411L864 411L864 465L912 465L912 455L960 455L960 422L960 328L960 328L912 328L912 355L864 355L864 318L816 318L816 312L768 312L768 361L720 361L720 393L672 393L672 301L624 301L624 285L576 285L576 361L528 361L528 339L480 339L480 285L432 285L432 377L384 377L384 301L336 301L336 269L288 269L288 388L240 388L240 372L192 372L192 269L144 269L144 307L96 307L96 350L48 350L48 345L0 345Z" fill="#375b78"></path><path d="M0 460L48 460L48 460L96 460L96 482L144 482L144 476L192 476L192 449L240 449L240 449L288 449L288 476L336 476L336 487L384 487L384 492L432 492L432 498L480 498L480 460L528 460L528 509L576 509L576 492L624 492L624 471L672 471L672 498L720 498L720 465L768 465L768 487L816 487L816 460L864 460L864 503L912 503L912 482L960 482L960 465L960 420L960 453L912 453L912 463L864 463L864 409L816 409L816 426L768 426L768 431L720 431L720 469L672 469L672 426L624 426L624 453L576 453L576 469L528 469L528 415L480 415L480 453L432 453L432 447L384 447L384 463L336 463L336 436L288 436L288 431L240 431L240 426L192 426L192 442L144 442L144 436L96 436L96 426L48 426L48 420L0 420Z" fill="#30506a"></path><path d="M0 498L48 498L48 498L96 498L96 514L144 514L144 492L192 492L192 492L240 492L240 492L288 492L288 519L336 519L336 503L384 503L384 509L432 509L432 514L480 514L480 503L528 503L528 525L576 525L576 514L624 514L624 492L672 492L672 525L720 525L720 503L768 503L768 519L816 519L816 503L864 503L864 519L912 519L912 519L960 519L960 492L960 463L960 480L912 480L912 501L864 501L864 458L816 458L816 485L768 485L768 463L720 463L720 496L672 496L672 469L624 469L624 490L576 490L576 507L528 507L528 458L480 458L480 496L432 496L432 490L384 490L384 485L336 485L336 474L288 474L288 447L240 447L240 447L192 447L192 474L144 474L144 480L96 480L96 458L48 458L48 458L0 458Z" fill="#2a455c"></path><path d="M0 541L48 541L48 541L96 541L96 541L144 541L144 541L192 541L192 541L240 541L240 541L288 541L288 541L336 541L336 541L384 541L384 541L432 541L432 541L480 541L480 541L528 541L528 541L576 541L576 541L624 541L624 541L672 541L672 541L720 541L720 541L768 541L768 541L816 541L816 541L864 541L864 541L912 541L912 541L960 541L960 541L960 490L960 517L912 517L912 517L864 517L864 501L816 501L816 517L768 517L768 501L720 501L720 523L672 523L672 490L624 490L624 512L576 512L576 523L528 523L528 501L480 501L480 512L432 512L432 507L384 507L384 501L336 501L336 517L288 517L288 490L240 490L240 490L192 490L192 490L144 490L144 512L96 512L96 496L48 496L48 496L0 496Z" fill="#243b4e"></path></svg>