<svg id="visual" viewBox="0 0 960 540" width="960" height="540" xmlns="http://www.w3.org/2000/svg" xmlns:xlink="http://www.w3.org/1999/xlink" version="1.1"><path d="M0 28L320 44L640 17L960 44L960 0L640 0L320 0L0 0Z" fill="#76a7a5"></path><path d="M0 44L320 50L640 39L960 82L960 42L640 15L320 42L0 26Z" fill="#71a4a1"></path><path d="M0 82L320 98L640 60L960 147L960 80L640 37L320 48L0 42Z" fill="#6ca09e"></path><path d="M0 114L320 114L640 93L960 168L960 145L640 58L320 96L0 80Z" fill="#669d9a"></path><path d="M0 147L320 131L640 114L960 174L960 166L640 91L320 112L0 112Z" fill="#619996"></path><path d="M0 357L320 287L640 217L960 363L960 172L640 112L320 129L0 145Z" fill="#5c9693"></path><path d="M0 379L320 330L640 255L960 379L960 361L640 215L320 285L0 355Z" fill="#56928f"></path><path d="M0 422L320 368L640 260L960 395L960 377L640 253L320 328L0 377Z" fill="#518f8c"></path><path d="M0 482L320 476L640 352L960 428L960 393L640 258L320 366L0 420Z" fill="#4c8b88"></path><path d="M0 530L320 503L640 476L960 471L960 426L640 350L320 474L0 480Z" fill="#468885"></path><path d="M0 536L320 519L640 519L960 498L960 469L640 474L320 501L0 528Z" fill="#418481"></path><path d="M0 541L320 541L640 541L960 541L960 496L640 517L320 517L0 534Z" fill="#3b817e"></path></svg>