<svg id="visual" viewBox="0 0 960 540" width="960" height="540" xmlns="http://www.w3.org/2000/svg" xmlns:xlink="http://www.w3.org/1999/xlink" version="1.1"><path d="M0 147L87 147L87 87L175 87L175 131L262 131L262 152L349 152L349 195L436 195L436 71L524 71L524 87L611 87L611 201L698 201L698 201L785 201L785 239L873 239L873 201L960 201L960 141L960 0L960 0L873 0L873 0L785 0L785 0L698 0L698 0L611 0L611 0L524 0L524 0L436 0L436 0L349 0L349 0L262 0L262 0L175 0L175 0L87 0L87 0L0 0Z" fill="#3b6281"></path><path d="M0 185L87 185L87 185L175 185L175 174L262 174L262 244L349 244L349 314L436 314L436 125L524 125L524 179L611 179L611 293L698 293L698 271L785 271L785 320L873 320L873 282L960 282L960 255L960 139L960 199L873 199L873 237L785 237L785 199L698 199L698 199L611 199L611 85L524 85L524 69L436 69L436 193L349 193L349 150L262 150L262 129L175 129L175 85L87 85L87 145L0 145Z" fill="#355874"></path><path d="M0 341L87 341L87 422L175 422L175 411L262 411L262 374L349 374L349 411L436 411L436 314L524 314L524 384L611 384L611 390L698 390L698 390L785 390L785 449L873 449L873 417L960 417L960 352L960 253L960 280L873 280L873 318L785 318L785 269L698 269L698 291L611 291L611 177L524 177L524 123L436 123L436 312L349 312L349 242L262 242L262 172L175 172L175 183L87 183L87 183L0 183Z" fill="#2f4e67"></path><path d="M0 401L87 401L87 476L175 476L175 492L262 492L262 433L349 433L349 444L436 444L436 401L524 401L524 471L611 471L611 465L698 465L698 449L785 449L785 482L873 482L873 455L960 455L960 411L960 350L960 415L873 415L873 447L785 447L785 388L698 388L698 388L611 388L611 382L524 382L524 312L436 312L436 409L349 409L349 372L262 372L262 409L175 409L175 420L87 420L87 339L0 339Z" fill="#29445a"></path><path d="M0 541L87 541L87 541L175 541L175 541L262 541L262 541L349 541L349 541L436 541L436 541L524 541L524 541L611 541L611 541L698 541L698 541L785 541L785 541L873 541L873 541L960 541L960 541L960 409L960 453L873 453L873 480L785 480L785 447L698 447L698 463L611 463L611 469L524 469L524 399L436 399L436 442L349 442L349 431L262 431L262 490L175 490L175 474L87 474L87 399L0 399Z" fill="#243b4e"></path></svg>