<svg xmlns="http://www.w3.org/2000/svg" width="800" height="692.787" viewBox="0 0 800 692.787"><g transform="translate(84.508 15.7)"><rect width="686.133" height="427.214" rx="7.21" fill="#e6e6e6"/><rect width="670.293" height="413.007" rx="7.21" transform="translate(8.637 7.104)" fill="#fff"/></g><path d="M63.886 0h728.941A7.173 7.173 0 0 1 800 7.173v8.069a7.173 7.173 0 0 1-7.173 7.173H63.886a7.173 7.173 0 0 1-7.173-7.173V7.173A7.173 7.173 0 0 1 63.886 0" fill="#e6e6e6"/><g transform="translate(185.824 83.908)"><rect width="485" height="181" rx="16" transform="translate(.176 129.203)" fill="#f2f2f2"/><path d="M21.519 7.546A21.519 21.519 0 1 1 0 29.065 21.52 21.52 0 0 1 21.519 7.546" fill="#f3b32a"/><rect width="279" height="29" rx="14.5" transform="translate(93.176 .203)" fill="#f3b32a"/><rect width="392" height="13" rx="6.5" transform="translate(93.176 44.203)" fill="#e6e6e6"/><rect width="174" height="14" rx="7" transform="translate(93.176 72.203)" fill="#e6e6e6"/></g><g transform="translate(0 264.957)"><path d="M0 426.416c0 .783.2 1.412.444 1.412h221.559c.248 0 .444-.628.444-1.412s-.2-1.412-.444-1.412H.444c-.246.003-.444.631-.444 1.412" fill="#f2f2f2"/><path d="m139.086 47.17-1.891 38.759-29.306-17.016 3.784-21.743Zm36.166 152.436 2.784 5.754s15.8 21.091 6.041 24.4-14.944-20-14.944-20l-2.581-3.262Z" fill="#ed9da0"/><path d="m157.048 90.656 2.6-1.1s3.074 1.1 3.074 5.826-3.781 73.737-3.781 73.737l7.563 37.814-10.399 1.892-16.071-34.978Z" fill="#575a89"/><path d="m157.048 90.657 1.891-1.129s5.6-1.327 5.423 18.564-5.423 61.03-5.423 61.03l20.325 32.615-13.235 9.454-26-37.341Z" fill="#2f2e41"/><path d="M155.157 200.317s6.711 7.493 5.765 16-7.656 174.96-7.656 174.96l3.781 18.907-35.923.945-.945-121.95-25.525 121.947-33.221-.945 22.822-213.645Z" fill="#090814"/><path d="m152.321 406.404 8.508 8.508s19.852 3.781 15.126 10.4-53.885-1.891-53.885-1.891l.945-15.126Zm-61.448 0 8.508 8.508s19.852 3.781 15.126 10.4-53.885-1.891-53.885-1.891l.945-15.126Z" fill="#2f2e41"/><circle cx="22.688" cy="22.688" r="22.688" transform="translate(102.217 11.246)" fill="#ed9da0"/><path d="m106.944 59.464 27.416 19.853 4.727-14.181 8.508 22.689-4.727 40.65Z" fill="#f3b32a"/><path d="m109.882 56.656 27.312 41.561 1.1-34.748 3.364 2.651a15.59 15.59 0 0 1 5.94 12.244l13.235 12.29-4.727 47.268-.945 55.776s5.672 4.727 3.781 7.563-9.46 9.455-17.96 9.455-61.448-6.618-61.448-10.4 1.891-52.94 1.891-52.94V81.203l22.688-17.016Z" fill="#2f2e41"/><path d="m77.638 213.552 12.29 17.962 4.726-20.8-5.672-3.782Z" fill="#ed9da0"/><path opacity=".2" d="m119.068 289.857 18.163-49.23 1.774.654-18.162 49.231z"/><path d="M111.198 11.719s2.836-14.18 18.907-11.344l-1.891.945s15.126-1.891 13.235 6.617c0 0 12.29 7.563 9.454 16.071a96 96 0 0 0-3.781 15.126l-2.836-2.836s-2.836-18.907-19.852-17.016c-12.762 1.418-17.962 7.445-19.291 11.787a38.4 38.4 0 0 1-2.336 5.941l-1.062.233s-5.672-20.797 9.453-25.524" fill="#090814"/><path d="m91.818 80.257-8.606-.4-1.793 1.345a56.6 56.6 0 0 0-5.672 6.617c-1.891 2.836-26.47 71.847-26.47 71.847a24.1 24.1 0 0 0 1.891 12.29c2.836 6.617 25.525 46.324 25.525 46.324l17.016-10.4-22.688-46.322 16.071-22.688Z" fill="#2f2e41"/></g></svg>