<svg xmlns="http://www.w3.org/2000/svg" width="800" height="627.54" viewBox="0 0 800 627.54"><g transform="translate(-560 -226)"><path d="m940.817 802.174-1.156 25.1 1.158 6.945-4.052 8.1-31.832 3.473-1.737-15.043 16.784-8.681.488-14.178Z" fill="#ed9da0"/><path d="m907.251 840.002 1.737 2.314 33.335-9.607s-1.5 14.812-1.5 17.71-54.981 2.893-63.255 1.737-5.617-8.681-5.617-8.681l34.31-16.238.994 12.764Z" fill="#090814"/><path d="m815.049 802.174-1.156 25.1 1.158 6.945-4.052 8.1-31.832 3.473-1.737-15.043 16.784-8.681.488-14.178Z" fill="#ed9da0"/><path d="m781.483 840.002 1.737 2.314 33.335-9.607s-1.5 14.812-1.5 17.71-54.981 2.893-63.255 1.737-5.617-8.681-5.617-8.681l34.31-16.238.994 12.764Z" fill="#090814"/><path d="m1051.864 790.243-19.188 17.664 15.249-25.586c-12.014-21.786-31.662-40.615-31.662-40.615s-40.764 39.055-40.764 69.755 18.25 41.419 40.764 41.419 40.763-10.719 40.763-41.419c.001-6.833-2.02-14.08-5.162-21.218" fill="#f2f2f2"/><path d="M1027.742 808.863v1.513c-.09 17.589-3.056 31.313-8.877 40.977-.082.142-.172.277-.255.419l-.652-.4-.622-.39c6.457-10.435 8.742-25.186 8.825-40.528.008-.494.015-1 .008-1.5-.023-6.495-.419-13.065-1.056-19.447-.045-.495-.1-1-.15-1.5-.884-8.42-2.158-16.466-3.461-23.455q-.137-.744-.285-1.476c-2.255-11.821-4.555-20.384-5.079-22.279-.06-.232-.1-.36-.1-.389l.712-.2.008-.007.719-.2c.008.03.135.457.345 1.251.8 2.966 2.884 11.02 4.929 21.642.09.479.187.974.277 1.468 1.064 5.671 2.105 12.008 2.929 18.661q.315 2.506.562 4.944.09.75.157 1.5 1.028 10.351 1.066 19.396" fill="#fff"/><path d="M1022.745 762.897c-.5.068-1.011.135-1.528.187a41 41 0 0 1-4.225.217 40.2 40.2 0 0 1-17.385-3.92c-.315.4-.629.794-.951 1.2a41.7 41.7 0 0 0 18.331 4.225 43 43 0 0 0 4.51-.24c.509-.052 1.019-.12 1.521-.195a41.3 41.3 0 0 0 11.949-3.618q-.483-.618-.944-1.214a40 40 0 0 1-11.278 3.358m3.768 25.074q-.775.045-1.551.045c-.157.007-.322.007-.479.007a40.42 40.42 0 0 1-33.172-17.328c-.3.442-.6.884-.891 1.334a41.92 41.92 0 0 0 34.063 17.492q.315.002.629-.007a50 50 0 0 0 1.558-.045 41.7 41.7 0 0 0 22.212-7.791c-.24-.442-.479-.884-.727-1.326a40.14 40.14 0 0 1-21.642 7.619" fill="#fff"/><path d="M1027.742 808.863c-.524.045-1.049.075-1.573.1-.562.022-1.124.037-1.686.037a40.52 40.52 0 0 1-38.85-29.156c-.337.607-.674 1.206-1 1.813a42.01 42.01 0 0 0 39.85 28.837c.562 0 1.124-.007 1.678-.037a37 37 0 0 0 1.581-.082 41.88 41.88 0 0 0 27.643-13.492c-.157-.554-.337-1.1-.517-1.656a40.4 40.4 0 0 1-27.126 13.634Z" fill="#fff"/><circle cx="109.423" cy="109.423" r="109.423" transform="translate(560 226)" fill="#e4e4e4"/><circle cx="91.185" cy="91.185" r="91.185" transform="translate(578.237 244.236)" fill="#f3b32a"/><circle cx="109.423" cy="109.423" r="109.423" transform="translate(850.578 226)" fill="#e4e4e4"/><circle cx="91.185" cy="91.185" r="91.185" transform="translate(868.814 244.236)" fill="#fff"/><circle cx="109.423" cy="109.423" r="109.423" transform="translate(1141.155 226)" fill="#e4e4e4"/><circle cx="91.185" cy="91.185" r="91.185" transform="translate(1159.392 244.236)" fill="#fff"/><path d="M661.673 368.396q-.245 0-.49-.012a10.01 10.01 0 0 1-7.423-3.856l-13.987-17.984a10.03 10.03 0 0 1 1.757-14.062l.5-.392a10.034 10.034 0 0 1 14.063 1.757 8.913 8.913 0 0 0 13.506.658l28.4-29.981a10.02 10.02 0 0 1 14.167-.383l.464.439a10.02 10.02 0 0 1 .382 14.166l-44.065 46.521a10 10 0 0 1-7.274 3.129" fill="#fff"/><path d="m911.975 315.482-63.08-10.336-8.945-52.3a14.654 14.654 0 0 1 14.889-14.372h23.94c18.3 0 33.193 14.373 33.193 32.04Z" fill="#090814"/><path d="m850.598 302.516 27.812-2.235 2.118 30.768h-32.04Zm-21.472 111.21-8.922 56.878 84.758 1.115-11.152-54.647Z" fill="#ed9da0"/><path d="M822.663 468.426s-16.542-5.844-24.127 79.406-6.214 261.594-6.214 261.594h22.863l54.647-220.715 48.01 220.716h25.29L926.709 561.97s4.6-48.511-18.959-77.137l-2.71-16.407Z" fill="#090814"/><path d="M938.458 512.75a16.73 16.73 0 0 1-10.72-23.309L891.68 371.885l26.522-5.257 32.978 115.23a16.822 16.822 0 0 1-12.722 30.893Z" fill="#ed9da0"/><path d="m890.739 445.138-58.426-1.128a7.64 7.64 0 0 1-7.24-5.754c-3.132-12.4-10.023-44.72-6.368-76.909a46.988 46.988 0 1 1 92.123 17.353c-7.354 27.929-11.509 47.91-12.347 59.389a7.62 7.62 0 0 1-6.105 6.905 7.6 7.6 0 0 1-1.474.145Z" fill="#e4e4e4"/><path d="M713.266 341.879a16.4 16.4 0 0 1 .862 2.433l73.133 24.851 14.131-12.345 21.419 18.892-22.893 24.285a12.46 12.46 0 0 1-14.734 2.55l-78.257-39.973a16.349 16.349 0 1 1 6.339-20.693" fill="#ed9da0"/><path d="M787.413 365.195a7 7 0 0 1 2.462-5.291l26.778-22.809a19.464 19.464 0 1 1 29.395 25.522l-19.069 29.694a7.01 7.01 0 0 1-10.508 1.491l-26.66-23.285a7 7 0 0 1-2.4-5.322Zm102.651 36.469a7 7 0 0 1-3.563-4.622l-7.917-34.274a19.464 19.464 0 1 1 36.191-14.34l17.578 30.6a7.01 7.01 0 0 1-3.515 10.014l-32.946 12.943a7 7 0 0 1-5.828-.322Z" fill="#e4e4e4"/><circle cx="34.099" cy="34.099" r="34.099" transform="rotate(-61.337 651.577 -543.584)" fill="#ed9da0"/><path d="M880.998 236.257h-39a11.333 11.333 0 0 0-11.436 10.343 11.08 11.08 0 0 0 11.053 11.816 11.08 11.08 0 0 1 11.08 11.08v45.429h60.942v-46.029a32.64 32.64 0 0 0-32.639-32.639" fill="#090814"/><path d="M1073.268 853.54H651.107a1.108 1.108 0 0 1 0-2.216h422.161a1.108 1.108 0 0 1 0 2.216" fill="#cacaca"/><ellipse cx="11.254" cy="15.005" rx="11.254" ry="15.005" transform="rotate(-66.869 632.046 -550.984)" fill="#090814"/></g></svg>